<svg xmlns="http://www.w3.org/2000/svg" width="30" viewBox="0 0 30 30" height="30" version="1.0"><path d="M 5.164062 0.800781 C 3.109375 0.800781 1.441406 2.46875 1.441406 4.527344 C 1.441406 6.582031 3.109375 8.25 5.164062 8.25 C 7.222656 8.25 8.886719 6.582031 8.886719 4.527344 C 8.886719 2.46875 7.222656 0.800781 5.164062 0.800781"/><path d="M 15.15625 0.800781 C 13.097656 0.800781 11.433594 2.46875 11.433594 4.527344 C 11.433594 6.582031 13.097656 8.25 15.15625 8.25 C 17.210938 8.25 18.878906 6.582031 18.878906 4.527344 C 18.878906 2.46875 17.210938 0.800781 15.15625 0.800781"/><path d="M 24.773438 0.800781 C 22.71875 0.800781 21.050781 2.46875 21.050781 4.527344 C 21.050781 6.582031 22.71875 8.25 24.773438 8.25 C 26.828125 8.25 28.496094 6.582031 28.496094 4.527344 C 28.496094 2.46875 26.828125 0.800781 24.773438 0.800781"/><path d="M 5.351562 10.792969 C 3.292969 10.792969 1.628906 12.460938 1.628906 14.515625 C 1.628906 16.574219 3.292969 18.238281 5.351562 18.238281 C 7.40625 18.238281 9.074219 16.574219 9.074219 14.515625 C 9.074219 12.460938 7.40625 10.792969 5.351562 10.792969"/><path d="M 15.339844 10.792969 C 13.285156 10.792969 11.617188 12.460938 11.617188 14.515625 C 11.617188 16.574219 13.285156 18.238281 15.339844 18.238281 C 17.398438 18.238281 19.0625 16.574219 19.0625 14.515625 C 19.0625 12.460938 17.398438 10.792969 15.339844 10.792969"/><path d="M 24.960938 10.792969 C 22.902344 10.792969 21.234375 12.460938 21.234375 14.515625 C 21.234375 16.574219 22.902344 18.238281 24.960938 18.238281 C 27.015625 18.238281 28.683594 16.574219 28.683594 14.515625 C 28.683594 12.460938 27.015625 10.792969 24.960938 10.792969"/><path d="M 5.164062 20.90625 C 3.109375 20.90625 1.441406 22.574219 1.441406 24.628906 C 1.441406 26.6875 3.109375 28.355469 5.164062 28.355469 C 7.222656 28.355469 8.886719 26.6875 8.886719 24.628906 C 8.886719 22.574219 7.222656 20.90625 5.164062 20.90625"/><path d="M 15.15625 20.90625 C 13.097656 20.90625 11.433594 22.574219 11.433594 24.628906 C 11.433594 26.6875 13.097656 28.355469 15.15625 28.355469 C 17.210938 28.355469 18.878906 26.6875 18.878906 24.628906 C 18.878906 22.574219 17.210938 20.90625 15.15625 20.90625"/><path d="M 24.773438 20.90625 C 22.71875 20.90625 21.050781 22.574219 21.050781 24.628906 C 21.050781 26.6875 22.71875 28.355469 24.773438 28.355469 C 26.828125 28.355469 28.496094 26.6875 28.496094 24.628906 C 28.496094 22.574219 26.828125 20.90625 24.773438 20.90625"/></svg>