<svg xmlns="http://www.w3.org/2000/svg" width="30" viewBox="0 0 30 30" height="30" version="1.0"><defs><clipPath id="a"><path d="M 0.484375 0 L 29.515625 0 L 29.515625 29.03125 L 0.484375 29.03125 Z M 0.484375 0"/></clipPath></defs><g clip-path="url(#a)"><path d="M 27.902344 0 L 2.097656 0 C 1.882812 0 1.675781 0.0390625 1.480469 0.121094 C 1.28125 0.203125 1.109375 0.320312 0.957031 0.472656 C 0.804688 0.625 0.6875 0.796875 0.605469 0.996094 C 0.523438 1.191406 0.484375 1.398438 0.484375 1.613281 L 0.484375 27.417969 C 0.484375 27.632812 0.523438 27.839844 0.605469 28.035156 C 0.6875 28.234375 0.804688 28.410156 0.957031 28.558594 C 1.109375 28.710938 1.28125 28.828125 1.480469 28.910156 C 1.675781 28.992188 1.882812 29.03125 2.097656 29.03125 L 27.902344 29.03125 C 28.117188 29.03125 28.324219 28.992188 28.519531 28.910156 C 28.71875 28.828125 28.890625 28.710938 29.042969 28.558594 C 29.195312 28.410156 29.3125 28.234375 29.394531 28.035156 C 29.476562 27.839844 29.515625 27.632812 29.515625 27.417969 L 29.515625 1.613281 C 29.515625 1.398438 29.476562 1.191406 29.394531 0.996094 C 29.3125 0.796875 29.195312 0.625 29.042969 0.472656 C 28.890625 0.320312 28.71875 0.203125 28.519531 0.121094 C 28.324219 0.0390625 28.117188 0 27.902344 0 Z M 8.546875 4.839844 C 8.976562 4.839844 9.386719 4.921875 9.78125 5.085938 C 10.179688 5.246094 10.527344 5.480469 10.828125 5.785156 C 11.132812 6.085938 11.363281 6.433594 11.527344 6.828125 C 11.691406 7.226562 11.773438 7.636719 11.773438 8.066406 C 11.773438 8.492188 11.691406 8.902344 11.527344 9.300781 C 11.363281 9.695312 11.132812 10.042969 10.828125 10.34375 C 10.527344 10.648438 10.179688 10.882812 9.78125 11.042969 C 9.386719 11.207031 8.976562 11.289062 8.546875 11.289062 C 8.121094 11.289062 7.710938 11.207031 7.3125 11.042969 C 6.917969 10.882812 6.570312 10.648438 6.265625 10.34375 C 5.964844 10.042969 5.730469 9.695312 5.566406 9.300781 C 5.40625 8.902344 5.324219 8.492188 5.324219 8.066406 C 5.324219 7.636719 5.40625 7.226562 5.566406 6.828125 C 5.730469 6.433594 5.964844 6.085938 6.265625 5.785156 C 6.570312 5.480469 6.917969 5.246094 7.3125 5.085938 C 7.710938 4.921875 8.121094 4.839844 8.546875 4.839844 Z M 26.289062 25.804688 L 3.710938 25.804688 L 3.710938 20 L 8.546875 16.128906 L 13.386719 20.96875 L 21.453125 12.902344 L 26.289062 16.773438 Z M 26.289062 25.804688"/></g></svg>