<svg xmlns="http://www.w3.org/2000/svg" width="25" viewBox="0 0 45 45" height="25" version="1.0"><defs><clipPath id="a"><path d="M 27 27 L 44.25 27 L 44.25 44.25 L 27 44.25 Z M 27 27"/></clipPath></defs><path fill="#606060" d="M 18.273438 35.335938 C 17.582031 35.335938 16.894531 35.292969 16.207031 35.210938 C 15.519531 35.125 14.84375 35 14.171875 34.832031 C 13.5 34.664062 12.84375 34.453125 12.195312 34.207031 C 11.550781 33.957031 10.921875 33.671875 10.3125 33.34375 C 9.703125 33.019531 9.113281 32.65625 8.550781 32.257812 C 7.984375 31.859375 7.445312 31.429688 6.933594 30.964844 C 6.417969 30.5 5.9375 30.003906 5.484375 29.480469 C 5.03125 28.957031 4.613281 28.410156 4.230469 27.832031 C 3.847656 27.257812 3.5 26.664062 3.1875 26.042969 C 2.875 25.425781 2.605469 24.792969 2.371094 24.140625 C 2.136719 23.488281 1.945312 22.828125 1.792969 22.152344 C 1.640625 21.476562 1.53125 20.796875 1.464844 20.105469 C 1.398438 19.417969 1.371094 18.726562 1.386719 18.035156 C 1.40625 17.34375 1.464844 16.65625 1.566406 15.972656 C 1.667969 15.289062 1.8125 14.613281 1.996094 13.945312 C 2.179688 13.28125 2.40625 12.628906 2.667969 11.988281 C 2.933594 11.347656 3.238281 10.730469 3.578125 10.128906 C 3.917969 9.523438 4.296875 8.945312 4.707031 8.390625 C 5.121094 7.835938 5.566406 7.308594 6.042969 6.804688 C 6.519531 6.304688 7.023438 5.835938 7.558594 5.398438 C 8.09375 4.957031 8.65625 4.554688 9.238281 4.183594 C 9.824219 3.816406 10.429688 3.480469 11.054688 3.1875 C 11.679688 2.890625 12.320312 2.632812 12.976562 2.417969 C 13.632812 2.199219 14.300781 2.027344 14.980469 1.890625 C 15.660156 1.757812 16.34375 1.664062 17.03125 1.613281 C 17.722656 1.5625 18.414062 1.554688 19.105469 1.589844 C 19.792969 1.621094 20.480469 1.699219 21.164062 1.816406 C 21.84375 1.9375 22.515625 2.097656 23.175781 2.296875 C 23.839844 2.5 24.484375 2.738281 25.117188 3.019531 C 25.75 3.300781 26.363281 3.621094 26.957031 3.976562 C 27.550781 4.332031 28.117188 4.722656 28.664062 5.148438 C 29.207031 5.574219 29.726562 6.03125 30.214844 6.523438 C 30.800781 7.109375 31.34375 7.734375 31.839844 8.402344 C 32.332031 9.070312 32.777344 9.769531 33.167969 10.5 C 33.558594 11.230469 33.894531 11.988281 34.175781 12.769531 C 34.457031 13.550781 34.675781 14.351562 34.839844 15.164062 C 35 15.980469 35.101562 16.800781 35.144531 17.628906 C 35.183594 18.460938 35.164062 19.289062 35.082031 20.113281 C 35 20.941406 34.859375 21.757812 34.65625 22.5625 C 34.457031 23.367188 34.195312 24.152344 33.878906 24.921875 C 33.5625 25.6875 33.1875 26.425781 32.761719 27.140625 C 32.335938 27.851562 31.855469 28.527344 31.332031 29.167969 C 30.804688 29.8125 30.230469 30.410156 29.617188 30.96875 C 29 31.527344 28.347656 32.035156 27.65625 32.496094 C 26.96875 32.957031 26.246094 33.363281 25.496094 33.71875 C 24.746094 34.074219 23.972656 34.371094 23.175781 34.613281 C 22.382812 34.851562 21.574219 35.03125 20.753906 35.15625 C 19.929688 35.277344 19.105469 35.335938 18.273438 35.335938 Z M 18.273438 5.289062 C 17.769531 5.285156 17.269531 5.3125 16.769531 5.371094 C 16.269531 5.425781 15.773438 5.511719 15.28125 5.625 C 14.789062 5.738281 14.308594 5.878906 13.832031 6.046875 C 13.359375 6.21875 12.894531 6.414062 12.441406 6.632812 C 11.992188 6.855469 11.550781 7.105469 11.128906 7.375 C 10.703125 7.648438 10.296875 7.945312 9.90625 8.261719 C 9.519531 8.582031 9.148438 8.921875 8.796875 9.28125 C 8.445312 9.644531 8.117188 10.023438 7.808594 10.421875 C 7.5 10.824219 7.21875 11.238281 6.957031 11.667969 C 6.699219 12.101562 6.464844 12.546875 6.253906 13.003906 C 6.046875 13.464844 5.863281 13.933594 5.710938 14.410156 C 5.554688 14.890625 5.429688 15.378906 5.328125 15.871094 C 5.230469 16.367188 5.160156 16.863281 5.117188 17.367188 C 5.078125 17.867188 5.0625 18.371094 5.078125 18.875 C 5.09375 19.378906 5.140625 19.878906 5.210938 20.378906 C 5.285156 20.875 5.386719 21.367188 5.515625 21.855469 C 5.648438 22.339844 5.804688 22.820312 5.988281 23.289062 C 6.171875 23.757812 6.382812 24.214844 6.621094 24.65625 C 6.859375 25.101562 7.121094 25.53125 7.40625 25.945312 C 7.691406 26.359375 8 26.757812 8.332031 27.136719 C 8.664062 27.515625 9.019531 27.875 9.390625 28.214844 C 9.765625 28.550781 10.15625 28.867188 10.5625 29.160156 C 10.972656 29.457031 11.398438 29.726562 11.839844 29.96875 C 12.277344 30.214844 12.730469 30.433594 13.195312 30.628906 C 13.660156 30.820312 14.136719 30.988281 14.621094 31.125 C 15.105469 31.265625 15.597656 31.375 16.09375 31.457031 C 16.589844 31.539062 17.089844 31.59375 17.59375 31.617188 C 18.097656 31.640625 18.597656 31.636719 19.101562 31.605469 C 19.605469 31.574219 20.105469 31.511719 20.597656 31.421875 C 21.09375 31.332031 21.582031 31.214844 22.066406 31.066406 C 22.546875 30.921875 23.019531 30.75 23.484375 30.546875 C 23.945312 30.347656 24.394531 30.121094 24.832031 29.871094 C 25.265625 29.617188 25.6875 29.34375 26.09375 29.042969 C 26.496094 28.742188 26.882812 28.417969 27.25 28.074219 C 27.617188 27.730469 27.964844 27.367188 28.289062 26.984375 C 28.617188 26.597656 28.917969 26.195312 29.199219 25.777344 C 29.480469 25.359375 29.734375 24.925781 29.964844 24.476562 C 30.195312 24.027344 30.398438 23.570312 30.574219 23.097656 C 30.753906 22.625 30.902344 22.144531 31.023438 21.65625 C 31.148438 21.167969 31.242188 20.675781 31.304688 20.175781 C 31.371094 19.675781 31.410156 19.175781 31.417969 18.671875 C 31.425781 18.167969 31.402344 17.664062 31.355469 17.164062 C 31.304688 16.660156 31.226562 16.164062 31.121094 15.671875 C 31.011719 15.179688 30.878906 14.695312 30.714844 14.21875 C 30.554688 13.742188 30.367188 13.273438 30.148438 12.820312 C 29.933594 12.363281 29.691406 11.921875 29.425781 11.496094 C 29.160156 11.066406 28.871094 10.65625 28.558594 10.261719 C 28.242188 9.867188 27.910156 9.492188 27.550781 9.136719 C 26.320312 7.90625 24.902344 6.957031 23.296875 6.289062 C 21.6875 5.625 20.015625 5.289062 18.273438 5.289062 Z M 18.273438 5.289062"/><g clip-path="url(#a)"><path fill="#606060" d="M 42.210938 44.25 C 41.699219 44.246094 41.261719 44.066406 40.902344 43.703125 L 27.589844 30.398438 C 27.414062 30.226562 27.28125 30.023438 27.1875 29.796875 C 27.09375 29.570312 27.046875 29.332031 27.046875 29.085938 C 27.046875 28.839844 27.09375 28.605469 27.1875 28.375 C 27.28125 28.148438 27.414062 27.949219 27.589844 27.773438 C 27.761719 27.601562 27.964844 27.464844 28.191406 27.371094 C 28.417969 27.277344 28.65625 27.230469 28.902344 27.230469 C 29.148438 27.230469 29.382812 27.277344 29.613281 27.371094 C 29.839844 27.464844 30.039062 27.601562 30.214844 27.773438 L 43.515625 41.085938 C 43.78125 41.351562 43.949219 41.667969 44.019531 42.035156 C 44.09375 42.402344 44.058594 42.757812 43.914062 43.105469 C 43.773438 43.449219 43.546875 43.726562 43.234375 43.933594 C 42.925781 44.144531 42.582031 44.25 42.210938 44.25 Z M 42.210938 44.25"/></g></svg>