<svg xmlns="http://www.w3.org/2000/svg" width="120" viewBox="0 0 120 120" height="120" version="1.0"><defs><clipPath id="a"><path d="M 3.390625 39.863281 L 43.890625 39.863281 L 43.890625 80.363281 L 3.390625 80.363281 Z M 3.390625 39.863281"/></clipPath></defs><g clip-path="url(#a)"><path fill="#38B6FF" d="M 23.640625 80.363281 C 12.457031 80.363281 3.390625 71.300781 3.390625 60.113281 C 3.390625 48.929688 12.457031 39.863281 23.640625 39.863281 C 34.824219 39.863281 43.890625 48.929688 43.890625 60.113281 C 43.890625 71.300781 34.824219 80.363281 23.640625 80.363281 Z M 23.640625 80.363281"/></g><path fill="#FFF" d="M 39.472656 61.171875 C 39.472656 67.777344 32.355469 73.132812 23.574219 73.132812 C 14.796875 73.132812 7.679688 67.777344 7.679688 61.171875 C 7.679688 58.074219 9.246094 55.253906 11.8125 53.128906 C 10.890625 51.175781 11.660156 48.046875 12.25 47.515625 C 12.855469 46.96875 16.28125 47.792969 17.867188 50.007812 C 19.640625 49.496094 21.5625 49.210938 23.574219 49.210938 C 25.617188 49.210938 27.570312 49.503906 29.363281 50.03125 C 30.945312 47.796875 34.390625 46.964844 34.996094 47.515625 C 35.59375 48.054688 36.375 51.238281 35.410156 53.1875 C 37.933594 55.304688 39.472656 58.105469 39.472656 61.171875 Z M 39.472656 61.171875"/><path fill="#FDF5D8" d="M 23.730469 49.214844 C 25.714844 49.230469 27.613281 49.515625 29.363281 50.03125 C 30.945312 47.796875 34.390625 46.964844 34.996094 47.515625 C 35.59375 48.054688 36.375 51.238281 35.410156 53.1875 C 37.933594 55.304688 39.472656 58.105469 39.472656 61.175781 C 39.472656 67.742188 32.4375 73.070312 23.730469 73.132812 Z M 23.730469 49.214844"/><path fill="#FCE64D" d="M 18.570312 49.816406 C 19.472656 49.59375 20.410156 49.425781 21.371094 49.328125 C 21.25 50.382812 20.84375 53.0625 19.90625 53.0625 C 19.089844 53.0625 18.722656 51.042969 18.570312 49.816406 Z M 22.105469 49.261719 C 22.261719 50.691406 22.703125 53.472656 23.753906 53.472656 C 24.796875 53.472656 25.296875 50.738281 25.484375 49.300781 C 24.859375 49.246094 24.222656 49.214844 23.574219 49.214844 C 23.082031 49.210938 22.589844 49.230469 22.105469 49.261719 Z M 26.242188 49.382812 C 26.355469 50.492188 26.710938 53.035156 27.625 53.035156 C 28.40625 53.035156 28.816406 51.164062 29.003906 49.933594 C 28.117188 49.6875 27.195312 49.503906 26.242188 49.382812 Z M 26.242188 49.382812"/><path d="M 36.0625 53.035156 C 36.851562 50.902344 36.121094 47.804688 35.359375 47.113281 C 35.074219 46.855469 34.589844 46.761719 33.917969 46.835938 C 32.703125 46.96875 30.503906 47.765625 29.15625 49.410156 C 27.371094 48.921875 25.496094 48.671875 23.578125 48.671875 C 21.6875 48.671875 19.839844 48.914062 18.074219 49.390625 C 16.71875 47.75 14.527344 46.964844 13.316406 46.835938 C 12.652344 46.761719 12.171875 46.855469 11.886719 47.113281 C 11.382812 47.570312 11.054688 48.800781 10.929688 49.714844 C 10.828125 50.445312 10.738281 51.777344 11.164062 52.972656 C 8.566406 55.246094 7.140625 58.144531 7.140625 61.175781 C 7.140625 68.066406 14.511719 73.675781 23.574219 73.675781 C 32.640625 73.675781 40.011719 68.066406 40.011719 61.175781 C 40.011719 58.175781 38.613281 55.300781 36.0625 53.035156 Z M 23.574219 72.59375 C 15.109375 72.59375 8.21875 67.472656 8.21875 61.171875 C 8.21875 58.355469 9.617188 55.644531 12.15625 53.546875 L 12.480469 53.277344 L 12.300781 52.898438 C 11.457031 51.113281 12.230469 48.3125 12.601562 47.925781 C 13.09375 47.703125 15.996094 48.324219 17.429688 50.324219 L 17.652344 50.632812 L 18.019531 50.527344 C 19.789062 50.011719 21.660156 49.753906 23.574219 49.753906 C 25.519531 49.753906 27.417969 50.019531 29.210938 50.546875 L 29.582031 50.65625 L 29.804688 50.34375 C 31.230469 48.324219 34.148438 47.699219 34.648438 47.925781 C 35.027344 48.320312 35.808594 51.160156 34.925781 52.945312 L 34.738281 53.328125 L 35.0625 53.601562 C 37.558594 55.695312 38.933594 58.382812 38.933594 61.171875 C 38.933594 67.472656 32.042969 72.59375 23.574219 72.59375 Z M 22.589844 60.292969 C 22.410156 60.089844 22.503906 59.769531 22.761719 59.695312 C 23.21875 59.566406 23.910156 59.457031 24.601562 59.683594 C 24.847656 59.761719 24.941406 60.058594 24.785156 60.261719 L 24.019531 61.246094 C 23.878906 61.425781 23.605469 61.433594 23.453125 61.261719 Z M 18.636719 58.316406 C 18.636719 58.742188 18.292969 59.089844 17.867188 59.089844 C 17.441406 59.089844 17.09375 58.742188 17.09375 58.316406 C 17.09375 57.890625 17.441406 57.546875 17.867188 57.546875 C 18.292969 57.546875 18.636719 57.890625 18.636719 58.316406 Z M 29.59375 58.316406 C 29.59375 58.742188 29.25 59.089844 28.824219 59.089844 C 28.398438 59.089844 28.050781 58.742188 28.050781 58.316406 C 28.050781 57.890625 28.398438 57.546875 28.824219 57.546875 C 29.25 57.546875 29.59375 57.890625 29.59375 58.316406 Z M 28.984375 63.582031 C 29.1875 63.796875 29.179688 64.140625 28.960938 64.34375 C 28.113281 65.144531 27.238281 65.550781 26.351562 65.550781 C 26.234375 65.550781 26.117188 65.542969 26 65.527344 C 25.042969 65.414062 24.3125 64.851562 23.863281 64.394531 C 23.378906 65.078125 22.773438 65.496094 22.054688 65.640625 C 21.871094 65.675781 21.6875 65.691406 21.507812 65.691406 C 20.066406 65.691406 18.808594 64.644531 18.75 64.597656 C 18.523438 64.402344 18.496094 64.0625 18.6875 63.835938 C 18.882812 63.605469 19.222656 63.578125 19.449219 63.769531 C 19.464844 63.785156 20.707031 64.808594 21.847656 64.578125 C 22.378906 64.472656 22.832031 64.085938 23.191406 63.429688 L 23.191406 62.175781 C 23.191406 61.878906 23.433594 61.636719 23.730469 61.636719 C 24.03125 61.636719 24.273438 61.878906 24.273438 62.175781 L 24.273438 63.210938 C 24.367188 63.347656 25.09375 64.335938 26.136719 64.457031 C 26.804688 64.535156 27.507812 64.234375 28.222656 63.558594 C 28.4375 63.351562 28.78125 63.363281 28.984375 63.582031 Z M 13.90625 59.640625 C 13.832031 59.875 13.621094 60.023438 13.390625 60.023438 C 13.335938 60.023438 13.28125 60.015625 13.230469 59.996094 L 11.519531 59.460938 C 11.234375 59.371094 11.078125 59.070312 11.164062 58.785156 C 11.253906 58.5 11.558594 58.34375 11.839844 58.429688 L 13.550781 58.964844 C 13.835938 59.054688 13.996094 59.359375 13.90625 59.640625 Z M 13.90625 63.167969 C 13.996094 63.453125 13.835938 63.753906 13.550781 63.84375 L 11.839844 64.378906 C 11.789062 64.394531 11.734375 64.402344 11.679688 64.402344 C 11.449219 64.402344 11.238281 64.253906 11.164062 64.023438 C 11.078125 63.738281 11.234375 63.4375 11.519531 63.347656 L 13.230469 62.8125 C 13.515625 62.722656 13.816406 62.882812 13.90625 63.167969 Z M 11.304688 61.890625 C 11.007812 61.890625 10.765625 61.648438 10.765625 61.351562 C 10.765625 61.054688 11.007812 60.8125 11.304688 60.8125 L 13.121094 60.8125 C 13.421875 60.8125 13.664062 61.054688 13.664062 61.351562 C 13.664062 61.648438 13.421875 61.890625 13.121094 61.890625 Z M 32.859375 59.640625 C 32.773438 59.359375 32.929688 59.054688 33.214844 58.964844 L 34.925781 58.433594 C 35.210938 58.34375 35.511719 58.5 35.601562 58.785156 C 35.691406 59.070312 35.53125 59.375 35.246094 59.464844 L 33.539062 59.996094 C 33.484375 60.015625 33.429688 60.023438 33.375 60.023438 C 33.144531 60.023438 32.933594 59.875 32.859375 59.640625 Z M 35.601562 64.023438 C 35.53125 64.253906 35.316406 64.402344 35.085938 64.402344 C 35.03125 64.402344 34.980469 64.394531 34.925781 64.378906 L 33.214844 63.84375 C 32.929688 63.753906 32.773438 63.453125 32.859375 63.167969 C 32.949219 62.882812 33.253906 62.722656 33.539062 62.8125 L 35.246094 63.347656 C 35.53125 63.433594 35.691406 63.738281 35.601562 64.023438 Z M 36 61.351562 C 36 61.648438 35.757812 61.890625 35.460938 61.890625 L 33.644531 61.890625 C 33.34375 61.890625 33.101562 61.648438 33.101562 61.351562 C 33.101562 61.054688 33.34375 60.8125 33.644531 60.8125 L 35.460938 60.8125 C 35.757812 60.8125 36 61.054688 36 61.351562 Z M 36 61.351562"/><g><g><g><path d="M 2.515625 0.140625 C 2.066406 0.140625 1.648438 0.0859375 1.265625 -0.015625 C 0.890625 -0.128906 0.617188 -0.25 0.453125 -0.375 L 0.453125 -2.015625 L 1.09375 -2.015625 L 1.296875 -1 C 1.421875 -0.882812 1.59375 -0.785156 1.8125 -0.703125 C 2.039062 -0.628906 2.257812 -0.59375 2.46875 -0.59375 C 2.925781 -0.59375 3.25 -0.671875 3.4375 -0.828125 C 3.632812 -0.992188 3.734375 -1.238281 3.734375 -1.5625 C 3.734375 -1.75 3.695312 -1.898438 3.625 -2.015625 C 3.550781 -2.140625 3.425781 -2.25 3.25 -2.34375 C 3.070312 -2.4375 2.804688 -2.5625 2.453125 -2.71875 L 2.21875 -2.8125 C 1.832031 -2.96875 1.519531 -3.113281 1.28125 -3.25 C 1.050781 -3.382812 0.851562 -3.570312 0.6875 -3.8125 C 0.53125 -4.0625 0.453125 -4.378906 0.453125 -4.765625 C 0.453125 -5.128906 0.546875 -5.453125 0.734375 -5.734375 C 0.921875 -6.023438 1.1875 -6.25 1.53125 -6.40625 C 1.875 -6.5625 2.273438 -6.640625 2.734375 -6.640625 C 3.066406 -6.640625 3.410156 -6.613281 3.765625 -6.5625 C 4.128906 -6.507812 4.394531 -6.453125 4.5625 -6.390625 L 4.5625 -4.6875 L 3.953125 -4.6875 L 3.75 -5.6875 C 3.425781 -5.820312 3.09375 -5.890625 2.75 -5.890625 C 2.332031 -5.890625 2.035156 -5.816406 1.859375 -5.671875 C 1.691406 -5.523438 1.609375 -5.304688 1.609375 -5.015625 C 1.609375 -4.835938 1.65625 -4.6875 1.75 -4.5625 C 1.851562 -4.4375 1.976562 -4.335938 2.125 -4.265625 C 2.269531 -4.191406 2.484375 -4.097656 2.765625 -3.984375 C 2.859375 -3.953125 2.921875 -3.929688 2.953125 -3.921875 C 3.359375 -3.765625 3.691406 -3.601562 3.953125 -3.4375 C 4.222656 -3.28125 4.441406 -3.078125 4.609375 -2.828125 C 4.773438 -2.578125 4.859375 -2.269531 4.859375 -1.90625 C 4.859375 -1.195312 4.628906 -0.675781 4.171875 -0.34375 C 3.710938 -0.0195312 3.160156 0.140625 2.515625 0.140625 Z M 2.515625 0.140625" transform="translate(46.376 63.75)"/></g></g></g><g><g><g><path d="M 1.234375 -0.703125 L 1.234375 -5.78125 L 0.421875 -5.96875 L 0.421875 -6.484375 L 5.25 -6.484375 L 5.25 -4.6875 L 4.640625 -4.6875 L 4.40625 -5.796875 L 3.09375 -5.796875 L 2.453125 -5.734375 L 2.453125 -3.625 L 3.671875 -3.625 L 3.875 -4.296875 L 4.359375 -4.296875 L 4.359375 -2.265625 L 3.875 -2.265625 L 3.671875 -2.953125 L 2.453125 -2.953125 L 2.453125 -0.734375 C 2.703125 -0.703125 2.929688 -0.6875 3.140625 -0.6875 L 4.5 -0.6875 L 4.734375 -1.84375 L 5.34375 -1.84375 L 5.34375 0 L 0.421875 0 L 0.421875 -0.515625 Z M 1.234375 -0.703125" transform="translate(52.154 63.75)"/></g></g></g><g><g><g><path d="M 5.625 -1.984375 L 5.625 -0.296875 C 5.34375 -0.160156 5.023438 -0.0507812 4.671875 0.03125 C 4.328125 0.113281 3.894531 0.15625 3.375 0.15625 C 2.375 0.15625 1.625 -0.125 1.125 -0.6875 C 0.632812 -1.257812 0.390625 -2.082031 0.390625 -3.15625 C 0.390625 -3.800781 0.519531 -4.390625 0.78125 -4.921875 C 1.050781 -5.453125 1.425781 -5.867188 1.90625 -6.171875 C 2.394531 -6.484375 2.945312 -6.640625 3.5625 -6.640625 C 3.96875 -6.640625 4.347656 -6.609375 4.703125 -6.546875 C 5.054688 -6.492188 5.351562 -6.429688 5.59375 -6.359375 L 5.59375 -4.640625 L 4.9375 -4.640625 L 4.71875 -5.703125 C 4.613281 -5.742188 4.457031 -5.78125 4.25 -5.8125 C 4.039062 -5.851562 3.8125 -5.875 3.5625 -5.875 C 3.125 -5.875 2.773438 -5.785156 2.515625 -5.609375 C 2.253906 -5.429688 2.066406 -5.148438 1.953125 -4.765625 C 1.847656 -4.378906 1.796875 -3.851562 1.796875 -3.1875 C 1.796875 -2.257812 1.941406 -1.59375 2.234375 -1.1875 C 2.523438 -0.78125 2.972656 -0.578125 3.578125 -0.578125 C 3.859375 -0.578125 4.085938 -0.601562 4.265625 -0.65625 C 4.441406 -0.71875 4.609375 -0.785156 4.765625 -0.859375 L 4.984375 -1.984375 Z M 5.625 -1.984375" transform="translate(58.432 63.75)"/></g></g></g><g><g><g><path d="M 0.1875 -5.953125 L 0.1875 -6.484375 L 2.984375 -6.484375 L 2.984375 -5.953125 L 2.203125 -5.796875 L 2.203125 -2.78125 C 2.203125 -2.1875 2.25 -1.738281 2.34375 -1.4375 C 2.4375 -1.132812 2.59375 -0.921875 2.8125 -0.796875 C 3.039062 -0.679688 3.363281 -0.625 3.78125 -0.625 C 4.132812 -0.625 4.414062 -0.691406 4.625 -0.828125 C 4.832031 -0.972656 4.976562 -1.195312 5.0625 -1.5 C 5.144531 -1.800781 5.1875 -2.226562 5.1875 -2.78125 L 5.1875 -5.78125 L 4.390625 -5.953125 L 4.390625 -6.484375 L 6.875 -6.484375 L 6.875 -5.953125 L 6.0625 -5.78125 L 6.0625 -2.78125 C 6.0625 -2.082031 5.984375 -1.519531 5.828125 -1.09375 C 5.679688 -0.664062 5.425781 -0.347656 5.0625 -0.140625 C 4.695312 0.0546875 4.191406 0.15625 3.546875 0.15625 C 2.878906 0.15625 2.363281 0.0546875 2 -0.140625 C 1.632812 -0.335938 1.375 -0.644531 1.21875 -1.0625 C 1.0625 -1.488281 0.984375 -2.0625 0.984375 -2.78125 L 0.984375 -5.796875 Z M 0.1875 -5.953125" transform="translate(65.01 63.75)"/></g></g></g><g><g><g><path d="M 0.421875 -0.515625 L 1.234375 -0.703125 L 1.234375 -5.78125 L 0.421875 -5.96875 L 0.421875 -6.484375 L 3.25 -6.484375 C 4 -6.484375 4.566406 -6.347656 4.953125 -6.078125 C 5.347656 -5.816406 5.546875 -5.367188 5.546875 -4.734375 C 5.546875 -3.847656 5.09375 -3.234375 4.1875 -2.890625 L 5.5 -0.6875 L 6.203125 -0.515625 L 6.203125 0 L 4.875 0 C 4.738281 0 4.625 -0.0234375 4.53125 -0.078125 C 4.4375 -0.128906 4.359375 -0.207031 4.296875 -0.3125 L 3.03125 -2.671875 L 2.453125 -2.671875 L 2.453125 -0.703125 L 3.265625 -0.515625 L 3.265625 0 L 0.421875 0 Z M 2.875 -3.359375 C 3.300781 -3.359375 3.632812 -3.472656 3.875 -3.703125 C 4.125 -3.929688 4.25 -4.253906 4.25 -4.671875 C 4.25 -5.085938 4.148438 -5.378906 3.953125 -5.546875 C 3.765625 -5.710938 3.46875 -5.796875 3.0625 -5.796875 C 2.820312 -5.796875 2.617188 -5.773438 2.453125 -5.734375 L 2.453125 -3.359375 Z M 2.875 -3.359375" transform="translate(72.517 63.75)"/></g></g></g><g><g><g><path d="M 1.234375 -0.703125 L 1.234375 -5.78125 L 0.421875 -5.96875 L 0.421875 -6.484375 L 5.25 -6.484375 L 5.25 -4.6875 L 4.640625 -4.6875 L 4.40625 -5.796875 L 3.09375 -5.796875 L 2.453125 -5.734375 L 2.453125 -3.625 L 3.671875 -3.625 L 3.875 -4.296875 L 4.359375 -4.296875 L 4.359375 -2.265625 L 3.875 -2.265625 L 3.671875 -2.953125 L 2.453125 -2.953125 L 2.453125 -0.734375 C 2.703125 -0.703125 2.929688 -0.6875 3.140625 -0.6875 L 4.5 -0.6875 L 4.734375 -1.84375 L 5.34375 -1.84375 L 5.34375 0 L 0.421875 0 L 0.421875 -0.515625 Z M 1.234375 -0.703125" transform="translate(79.224 63.75)"/></g></g></g><g><g><g><path d="M 0.4375 -0.515625 L 1.25 -0.703125 L 1.25 -5.78125 L 0.4375 -5.96875 L 0.4375 -6.484375 L 3.15625 -6.484375 C 3.945312 -6.484375 4.546875 -6.34375 4.953125 -6.0625 C 5.359375 -5.789062 5.5625 -5.382812 5.5625 -4.84375 C 5.5625 -4.25 5.21875 -3.78125 4.53125 -3.4375 C 4.945312 -3.320312 5.265625 -3.132812 5.484375 -2.875 C 5.710938 -2.613281 5.828125 -2.304688 5.828125 -1.953125 C 5.828125 -1.347656 5.617188 -0.867188 5.203125 -0.515625 C 4.796875 -0.171875 4.234375 0 3.515625 0 L 0.4375 0 Z M 2.875 -3.625 C 3.320312 -3.625 3.664062 -3.722656 3.90625 -3.921875 C 4.144531 -4.128906 4.265625 -4.421875 4.265625 -4.796875 C 4.265625 -5.453125 3.867188 -5.78125 3.078125 -5.78125 C 2.890625 -5.78125 2.6875 -5.765625 2.46875 -5.734375 L 2.46875 -3.625 Z M 3.03125 -0.6875 C 3.53125 -0.6875 3.898438 -0.78125 4.140625 -0.96875 C 4.378906 -1.15625 4.5 -1.445312 4.5 -1.84375 C 4.5 -2.21875 4.367188 -2.492188 4.109375 -2.671875 C 3.859375 -2.859375 3.46875 -2.953125 2.9375 -2.953125 L 2.46875 -2.953125 L 2.46875 -0.703125 C 2.6875 -0.691406 2.875 -0.6875 3.03125 -0.6875 Z M 3.03125 -0.6875" transform="translate(87.821 63.75)"/></g></g></g><g><g><g><path d="M 3.421875 0.15625 C 2.441406 0.15625 1.691406 -0.125 1.171875 -0.6875 C 0.648438 -1.257812 0.390625 -2.070312 0.390625 -3.125 C 0.390625 -3.800781 0.519531 -4.40625 0.78125 -4.9375 C 1.039062 -5.46875 1.414062 -5.882812 1.90625 -6.1875 C 2.40625 -6.488281 2.988281 -6.640625 3.65625 -6.640625 C 4.601562 -6.640625 5.335938 -6.351562 5.859375 -5.78125 C 6.378906 -5.21875 6.640625 -4.410156 6.640625 -3.359375 C 6.640625 -2.671875 6.515625 -2.0625 6.265625 -1.53125 C 6.023438 -1 5.660156 -0.582031 5.171875 -0.28125 C 4.691406 0.0078125 4.109375 0.15625 3.421875 0.15625 Z M 3.609375 -0.5625 C 4.179688 -0.5625 4.59375 -0.757812 4.84375 -1.15625 C 5.101562 -1.5625 5.234375 -2.21875 5.234375 -3.125 C 5.234375 -3.820312 5.164062 -4.367188 5.03125 -4.765625 C 4.90625 -5.171875 4.710938 -5.457031 4.453125 -5.625 C 4.203125 -5.789062 3.878906 -5.875 3.484375 -5.875 C 3.109375 -5.875 2.796875 -5.800781 2.546875 -5.65625 C 2.304688 -5.519531 2.117188 -5.265625 1.984375 -4.890625 C 1.859375 -4.523438 1.796875 -4 1.796875 -3.3125 C 1.796875 -2.332031 1.941406 -1.628906 2.234375 -1.203125 C 2.523438 -0.773438 2.984375 -0.5625 3.609375 -0.5625 Z M 3.609375 -0.5625" transform="translate(94.559 63.75)"/></g></g></g><g><g><g><path d="M 3.421875 0.15625 C 2.441406 0.15625 1.691406 -0.125 1.171875 -0.6875 C 0.648438 -1.257812 0.390625 -2.070312 0.390625 -3.125 C 0.390625 -3.800781 0.519531 -4.40625 0.78125 -4.9375 C 1.039062 -5.46875 1.414062 -5.882812 1.90625 -6.1875 C 2.40625 -6.488281 2.988281 -6.640625 3.65625 -6.640625 C 4.601562 -6.640625 5.335938 -6.351562 5.859375 -5.78125 C 6.378906 -5.21875 6.640625 -4.410156 6.640625 -3.359375 C 6.640625 -2.671875 6.515625 -2.0625 6.265625 -1.53125 C 6.023438 -1 5.660156 -0.582031 5.171875 -0.28125 C 4.691406 0.0078125 4.109375 0.15625 3.421875 0.15625 Z M 3.609375 -0.5625 C 4.179688 -0.5625 4.59375 -0.757812 4.84375 -1.15625 C 5.101562 -1.5625 5.234375 -2.21875 5.234375 -3.125 C 5.234375 -3.820312 5.164062 -4.367188 5.03125 -4.765625 C 4.90625 -5.171875 4.710938 -5.457031 4.453125 -5.625 C 4.203125 -5.789062 3.878906 -5.875 3.484375 -5.875 C 3.109375 -5.875 2.796875 -5.800781 2.546875 -5.65625 C 2.304688 -5.519531 2.117188 -5.265625 1.984375 -4.890625 C 1.859375 -4.523438 1.796875 -4 1.796875 -3.3125 C 1.796875 -2.332031 1.941406 -1.628906 2.234375 -1.203125 C 2.523438 -0.773438 2.984375 -0.5625 3.609375 -0.5625 Z M 3.609375 -0.5625" transform="translate(102.086 63.75)"/></g></g></g><g><g><g><path d="M 1.234375 -0.6875 L 1.234375 -5.796875 L 0.421875 -5.953125 L 0.421875 -6.484375 L 3.265625 -6.484375 L 3.265625 -5.953125 L 2.453125 -5.796875 L 2.453125 -3.5625 L 2.65625 -3.5625 L 4.40625 -5.703125 L 4.40625 -5.84375 L 3.875 -5.96875 L 3.875 -6.484375 L 6.109375 -6.484375 L 6.109375 -5.953125 L 5.453125 -5.796875 L 3.625 -3.5625 L 5.609375 -0.703125 L 6.359375 -0.515625 L 6.359375 0 L 5.0625 0 C 4.90625 0 4.78125 -0.0234375 4.6875 -0.078125 C 4.59375 -0.140625 4.5 -0.242188 4.40625 -0.390625 L 2.65625 -2.984375 L 2.453125 -2.984375 L 2.453125 -0.6875 L 3.265625 -0.515625 L 3.265625 0 L 0.421875 0 L 0.421875 -0.515625 Z M 1.234375 -0.6875" transform="translate(109.613 63.75)"/></g></g></g></svg>