<svg xmlns="http://www.w3.org/2000/svg" width="120" viewBox="0 0 120 120" height="120" version="1.0"><g><g><g><path d="M 4.015625 0.21875 C 3.296875 0.21875 2.632812 0.132812 2.03125 -0.03125 C 1.4375 -0.207031 1.003906 -0.394531 0.734375 -0.59375 L 0.734375 -3.234375 L 1.765625 -3.234375 L 2.0625 -1.59375 C 2.28125 -1.414062 2.566406 -1.257812 2.921875 -1.125 C 3.273438 -1 3.617188 -0.9375 3.953125 -0.9375 C 4.679688 -0.9375 5.203125 -1.066406 5.515625 -1.328125 C 5.828125 -1.597656 5.984375 -1.988281 5.984375 -2.5 C 5.984375 -2.789062 5.921875 -3.03125 5.796875 -3.21875 C 5.671875 -3.414062 5.46875 -3.59375 5.1875 -3.75 C 4.914062 -3.90625 4.492188 -4.109375 3.921875 -4.359375 L 3.546875 -4.5 C 2.929688 -4.75 2.4375 -4.976562 2.0625 -5.1875 C 1.6875 -5.40625 1.367188 -5.707031 1.109375 -6.09375 C 0.859375 -6.488281 0.734375 -6.992188 0.734375 -7.609375 C 0.734375 -8.210938 0.878906 -8.738281 1.171875 -9.1875 C 1.460938 -9.644531 1.882812 -10 2.4375 -10.25 C 3 -10.5 3.648438 -10.625 4.390625 -10.625 C 4.910156 -10.625 5.457031 -10.582031 6.03125 -10.5 C 6.601562 -10.414062 7.03125 -10.320312 7.3125 -10.21875 L 7.3125 -7.484375 L 6.34375 -7.484375 L 6 -9.09375 C 5.476562 -9.3125 4.945312 -9.421875 4.40625 -9.421875 C 3.726562 -9.421875 3.253906 -9.300781 2.984375 -9.0625 C 2.710938 -8.832031 2.578125 -8.488281 2.578125 -8.03125 C 2.578125 -7.738281 2.65625 -7.492188 2.8125 -7.296875 C 2.96875 -7.109375 3.164062 -6.953125 3.40625 -6.828125 C 3.644531 -6.703125 3.984375 -6.554688 4.421875 -6.390625 C 4.578125 -6.328125 4.675781 -6.285156 4.71875 -6.265625 C 5.382812 -6.015625 5.925781 -5.765625 6.34375 -5.515625 C 6.757812 -5.265625 7.101562 -4.9375 7.375 -4.53125 C 7.644531 -4.132812 7.78125 -3.644531 7.78125 -3.0625 C 7.78125 -1.914062 7.410156 -1.082031 6.671875 -0.5625 C 5.929688 -0.0390625 5.046875 0.21875 4.015625 0.21875 Z M 4.015625 0.21875" transform="translate(4.431 66)"/></g></g></g><g><g><g><path d="M 1.96875 -1.125 L 1.96875 -9.25 L 0.671875 -9.546875 L 0.671875 -10.375 L 8.40625 -10.375 L 8.40625 -7.5 L 7.421875 -7.5 L 7.046875 -9.28125 L 4.9375 -9.28125 L 3.921875 -9.171875 L 3.921875 -5.8125 L 5.875 -5.8125 L 6.1875 -6.859375 L 6.96875 -6.859375 L 6.96875 -3.609375 L 6.1875 -3.609375 L 5.875 -4.71875 L 3.921875 -4.71875 L 3.921875 -1.171875 C 4.328125 -1.128906 4.695312 -1.109375 5.03125 -1.109375 L 7.203125 -1.109375 L 7.578125 -2.953125 L 8.546875 -2.953125 L 8.546875 0 L 0.671875 0 L 0.671875 -0.8125 Z M 1.96875 -1.125" transform="translate(13.677 66)"/></g></g></g><g><g><g><path d="M 9.015625 -3.1875 L 9.015625 -0.46875 C 8.546875 -0.257812 8.035156 -0.09375 7.484375 0.03125 C 6.929688 0.164062 6.234375 0.234375 5.390625 0.234375 C 3.804688 0.234375 2.613281 -0.21875 1.8125 -1.125 C 1.019531 -2.03125 0.625 -3.34375 0.625 -5.0625 C 0.625 -6.09375 0.835938 -7.03125 1.265625 -7.875 C 1.691406 -8.726562 2.289062 -9.398438 3.0625 -9.890625 C 3.832031 -10.378906 4.71875 -10.625 5.71875 -10.625 C 6.351562 -10.625 6.957031 -10.578125 7.53125 -10.484375 C 8.101562 -10.398438 8.570312 -10.296875 8.9375 -10.171875 L 8.9375 -7.421875 L 7.890625 -7.421875 L 7.546875 -9.140625 C 7.378906 -9.203125 7.128906 -9.257812 6.796875 -9.3125 C 6.460938 -9.375 6.097656 -9.40625 5.703125 -9.40625 C 4.992188 -9.40625 4.429688 -9.265625 4.015625 -8.984375 C 3.609375 -8.703125 3.3125 -8.25 3.125 -7.625 C 2.945312 -7.007812 2.859375 -6.171875 2.859375 -5.109375 C 2.859375 -3.609375 3.09375 -2.535156 3.5625 -1.890625 C 4.03125 -1.242188 4.753906 -0.921875 5.734375 -0.921875 C 6.179688 -0.921875 6.546875 -0.96875 6.828125 -1.0625 C 7.109375 -1.15625 7.367188 -1.257812 7.609375 -1.375 L 7.96875 -3.1875 Z M 9.015625 -3.1875" transform="translate(23.723 66)"/></g></g></g><g><g><g><path d="M 0.28125 -9.53125 L 0.28125 -10.375 L 4.765625 -10.375 L 4.765625 -9.53125 L 3.53125 -9.265625 L 3.53125 -4.453125 C 3.53125 -3.503906 3.601562 -2.785156 3.75 -2.296875 C 3.90625 -1.804688 4.160156 -1.46875 4.515625 -1.28125 C 4.867188 -1.101562 5.378906 -1.015625 6.046875 -1.015625 C 6.617188 -1.015625 7.066406 -1.117188 7.390625 -1.328125 C 7.722656 -1.546875 7.957031 -1.898438 8.09375 -2.390625 C 8.226562 -2.890625 8.296875 -3.578125 8.296875 -4.453125 L 8.296875 -9.25 L 7.03125 -9.515625 L 7.03125 -10.375 L 10.984375 -10.375 L 10.984375 -9.515625 L 9.703125 -9.25 L 9.703125 -4.453125 C 9.703125 -3.328125 9.578125 -2.425781 9.328125 -1.75 C 9.085938 -1.070312 8.675781 -0.566406 8.09375 -0.234375 C 7.507812 0.0859375 6.707031 0.25 5.6875 0.25 C 4.613281 0.25 3.78125 0.09375 3.1875 -0.21875 C 2.601562 -0.53125 2.1875 -1.023438 1.9375 -1.703125 C 1.695312 -2.378906 1.578125 -3.296875 1.578125 -4.453125 L 1.578125 -9.265625 Z M 0.28125 -9.53125" transform="translate(34.249 66)"/></g></g></g><g><g><g><path d="M 0.671875 -0.8125 L 1.96875 -1.125 L 1.96875 -9.25 L 0.671875 -9.546875 L 0.671875 -10.375 L 5.203125 -10.375 C 6.410156 -10.375 7.320312 -10.160156 7.9375 -9.734375 C 8.5625 -9.304688 8.875 -8.582031 8.875 -7.5625 C 8.875 -6.15625 8.148438 -5.175781 6.703125 -4.625 L 8.796875 -1.109375 L 9.9375 -0.8125 L 9.9375 0 L 7.8125 0 C 7.582031 0 7.394531 -0.0351562 7.25 -0.109375 C 7.101562 -0.191406 6.976562 -0.328125 6.875 -0.515625 L 4.84375 -4.265625 L 3.921875 -4.265625 L 3.921875 -1.125 L 5.21875 -0.8125 L 5.21875 0 L 0.671875 0 Z M 4.59375 -5.375 C 5.28125 -5.375 5.816406 -5.554688 6.203125 -5.921875 C 6.597656 -6.285156 6.796875 -6.800781 6.796875 -7.46875 C 6.796875 -8.132812 6.640625 -8.597656 6.328125 -8.859375 C 6.023438 -9.128906 5.550781 -9.265625 4.90625 -9.265625 C 4.507812 -9.265625 4.179688 -9.238281 3.921875 -9.1875 L 3.921875 -5.375 Z M 4.59375 -5.375" transform="translate(46.262 66)"/></g></g></g><g><g><g><path d="M 1.96875 -1.125 L 1.96875 -9.25 L 0.671875 -9.546875 L 0.671875 -10.375 L 8.40625 -10.375 L 8.40625 -7.5 L 7.421875 -7.5 L 7.046875 -9.28125 L 4.9375 -9.28125 L 3.921875 -9.171875 L 3.921875 -5.8125 L 5.875 -5.8125 L 6.1875 -6.859375 L 6.96875 -6.859375 L 6.96875 -3.609375 L 6.1875 -3.609375 L 5.875 -4.71875 L 3.921875 -4.71875 L 3.921875 -1.171875 C 4.328125 -1.128906 4.695312 -1.109375 5.03125 -1.109375 L 7.203125 -1.109375 L 7.578125 -2.953125 L 8.546875 -2.953125 L 8.546875 0 L 0.671875 0 L 0.671875 -0.8125 Z M 1.96875 -1.125" transform="translate(56.996 66)"/></g></g></g><g><g><g><path d="M 0.703125 -0.8125 L 2 -1.125 L 2 -9.25 L 0.703125 -9.546875 L 0.703125 -10.375 L 5.046875 -10.375 C 6.304688 -10.375 7.257812 -10.148438 7.90625 -9.703125 C 8.5625 -9.265625 8.890625 -8.617188 8.890625 -7.765625 C 8.890625 -6.816406 8.34375 -6.0625 7.25 -5.5 C 7.90625 -5.320312 8.414062 -5.023438 8.78125 -4.609375 C 9.144531 -4.191406 9.328125 -3.695312 9.328125 -3.125 C 9.328125 -2.144531 9 -1.378906 8.34375 -0.828125 C 7.6875 -0.273438 6.773438 0 5.609375 0 L 0.703125 0 Z M 4.59375 -5.8125 C 5.300781 -5.8125 5.847656 -5.972656 6.234375 -6.296875 C 6.628906 -6.617188 6.828125 -7.070312 6.828125 -7.65625 C 6.828125 -8.71875 6.191406 -9.25 4.921875 -9.25 C 4.617188 -9.25 4.296875 -9.226562 3.953125 -9.1875 L 3.953125 -5.8125 Z M 4.84375 -1.09375 C 5.644531 -1.09375 6.238281 -1.242188 6.625 -1.546875 C 7.007812 -1.847656 7.203125 -2.3125 7.203125 -2.9375 C 7.203125 -3.550781 7 -4 6.59375 -4.28125 C 6.1875 -4.570312 5.554688 -4.71875 4.703125 -4.71875 L 3.953125 -4.71875 L 3.953125 -1.140625 C 4.304688 -1.109375 4.601562 -1.09375 4.84375 -1.09375 Z M 4.84375 -1.09375" transform="translate(70.753 66)"/></g></g></g><g><g><g><path d="M 5.46875 0.25 C 3.90625 0.25 2.707031 -0.203125 1.875 -1.109375 C 1.039062 -2.015625 0.625 -3.316406 0.625 -5.015625 C 0.625 -6.085938 0.832031 -7.046875 1.25 -7.890625 C 1.664062 -8.742188 2.265625 -9.410156 3.046875 -9.890625 C 3.835938 -10.378906 4.773438 -10.625 5.859375 -10.625 C 7.367188 -10.625 8.539062 -10.164062 9.375 -9.25 C 10.207031 -8.34375 10.625 -7.050781 10.625 -5.375 C 10.625 -4.28125 10.425781 -3.304688 10.03125 -2.453125 C 9.632812 -1.609375 9.050781 -0.945312 8.28125 -0.46875 C 7.507812 0.0078125 6.570312 0.25 5.46875 0.25 Z M 5.78125 -0.90625 C 6.695312 -0.90625 7.359375 -1.222656 7.765625 -1.859375 C 8.171875 -2.503906 8.375 -3.554688 8.375 -5.015625 C 8.375 -6.117188 8.269531 -6.988281 8.0625 -7.625 C 7.851562 -8.269531 7.546875 -8.726562 7.140625 -9 C 6.734375 -9.269531 6.210938 -9.40625 5.578125 -9.40625 C 4.972656 -9.40625 4.472656 -9.289062 4.078125 -9.0625 C 3.691406 -8.84375 3.390625 -8.429688 3.171875 -7.828125 C 2.960938 -7.234375 2.859375 -6.394531 2.859375 -5.3125 C 2.859375 -3.726562 3.09375 -2.597656 3.5625 -1.921875 C 4.03125 -1.242188 4.769531 -0.90625 5.78125 -0.90625 Z M 5.78125 -0.90625" transform="translate(81.534 66)"/></g></g></g><g><g><g><path d="M 5.46875 0.25 C 3.90625 0.25 2.707031 -0.203125 1.875 -1.109375 C 1.039062 -2.015625 0.625 -3.316406 0.625 -5.015625 C 0.625 -6.085938 0.832031 -7.046875 1.25 -7.890625 C 1.664062 -8.742188 2.265625 -9.410156 3.046875 -9.890625 C 3.835938 -10.378906 4.773438 -10.625 5.859375 -10.625 C 7.367188 -10.625 8.539062 -10.164062 9.375 -9.25 C 10.207031 -8.34375 10.625 -7.050781 10.625 -5.375 C 10.625 -4.28125 10.425781 -3.304688 10.03125 -2.453125 C 9.632812 -1.609375 9.050781 -0.945312 8.28125 -0.46875 C 7.507812 0.0078125 6.570312 0.25 5.46875 0.25 Z M 5.78125 -0.90625 C 6.695312 -0.90625 7.359375 -1.222656 7.765625 -1.859375 C 8.171875 -2.503906 8.375 -3.554688 8.375 -5.015625 C 8.375 -6.117188 8.269531 -6.988281 8.0625 -7.625 C 7.851562 -8.269531 7.546875 -8.726562 7.140625 -9 C 6.734375 -9.269531 6.210938 -9.40625 5.578125 -9.40625 C 4.972656 -9.40625 4.472656 -9.289062 4.078125 -9.0625 C 3.691406 -8.84375 3.390625 -8.429688 3.171875 -7.828125 C 2.960938 -7.234375 2.859375 -6.394531 2.859375 -5.3125 C 2.859375 -3.726562 3.09375 -2.597656 3.5625 -1.921875 C 4.03125 -1.242188 4.769531 -0.90625 5.78125 -0.90625 Z M 5.78125 -0.90625" transform="translate(93.58 66)"/></g></g></g><g><g><g><path d="M 1.96875 -1.109375 L 1.96875 -9.265625 L 0.671875 -9.53125 L 0.671875 -10.375 L 5.21875 -10.375 L 5.21875 -9.53125 L 3.921875 -9.265625 L 3.921875 -5.71875 L 4.25 -5.71875 L 7.046875 -9.125 L 7.046875 -9.359375 L 6.203125 -9.546875 L 6.203125 -10.375 L 9.78125 -10.375 L 9.78125 -9.53125 L 8.734375 -9.28125 L 5.8125 -5.71875 L 8.96875 -1.125 L 10.171875 -0.828125 L 10.171875 0 L 8.109375 0 C 7.859375 0 7.65625 -0.0390625 7.5 -0.125 C 7.351562 -0.21875 7.207031 -0.382812 7.0625 -0.625 L 4.234375 -4.78125 L 3.921875 -4.78125 L 3.921875 -1.109375 L 5.21875 -0.828125 L 5.21875 0 L 0.671875 0 L 0.671875 -0.828125 Z M 1.96875 -1.109375" transform="translate(105.625 66)"/></g></g></g></svg>