<svg xmlns="http://www.w3.org/2000/svg" width="120" viewBox="0 0 120 120" height="120" version="1.0"><defs><clipPath id="a"><path d="M 2 17.136719 L 118.539062 17.136719 L 118.539062 107.886719 L 2 107.886719 Z M 2 17.136719"/></clipPath></defs><g><g><g><path d="M 20.078125 1.125 C 16.503906 1.125 13.210938 0.6875 10.203125 -0.1875 C 7.191406 -1.070312 5.019531 -1.992188 3.6875 -2.953125 L 3.6875 -16.15625 L 8.796875 -16.15625 L 10.3125 -8 C 11.382812 -7.09375 12.8125 -6.316406 14.59375 -5.671875 C 16.382812 -5.035156 18.109375 -4.71875 19.765625 -4.71875 C 23.390625 -4.71875 25.988281 -5.367188 27.5625 -6.671875 C 29.132812 -7.984375 29.921875 -9.921875 29.921875 -12.484375 C 29.921875 -13.972656 29.613281 -15.195312 29 -16.15625 C 28.382812 -17.113281 27.382812 -17.976562 26 -18.75 C 24.613281 -19.53125 22.476562 -20.535156 19.59375 -21.765625 L 17.765625 -22.484375 C 14.671875 -23.765625 12.1875 -24.9375 10.3125 -26 C 8.445312 -27.0625 6.875 -28.566406 5.59375 -30.515625 C 4.320312 -32.460938 3.6875 -34.984375 3.6875 -38.078125 C 3.6875 -41.066406 4.414062 -43.691406 5.875 -45.953125 C 7.34375 -48.222656 9.460938 -49.984375 12.234375 -51.234375 C 15.015625 -52.492188 18.242188 -53.125 21.921875 -53.125 C 24.535156 -53.125 27.28125 -52.910156 30.15625 -52.484375 C 33.039062 -52.054688 35.175781 -51.601562 36.5625 -51.125 L 36.5625 -37.4375 L 31.6875 -37.4375 L 30 -45.4375 C 27.382812 -46.5625 24.71875 -47.125 22 -47.125 C 18.632812 -47.125 16.269531 -46.535156 14.90625 -45.359375 C 13.550781 -44.179688 12.875 -42.445312 12.875 -40.15625 C 12.875 -38.71875 13.257812 -37.503906 14.03125 -36.515625 C 14.8125 -35.535156 15.800781 -34.738281 17 -34.125 C 18.195312 -33.507812 19.890625 -32.773438 22.078125 -31.921875 C 22.878906 -31.648438 23.382812 -31.460938 23.59375 -31.359375 C 26.90625 -30.078125 29.613281 -28.8125 31.71875 -27.5625 C 33.820312 -26.3125 35.539062 -24.6875 36.875 -22.6875 C 38.207031 -20.6875 38.875 -18.21875 38.875 -15.28125 C 38.875 -9.570312 37.035156 -5.410156 33.359375 -2.796875 C 29.679688 -0.179688 25.253906 1.125 20.078125 1.125 Z M 20.078125 1.125" transform="translate(15.456 92.5)"/></g></g></g><g><g><g><path d="M 3.515625 -4.078125 L 10 -5.59375 L 10 -46.234375 L 3.515625 -47.765625 L 3.515625 -51.84375 L 25.203125 -51.84375 C 31.546875 -51.84375 36.34375 -50.734375 39.59375 -48.515625 C 42.851562 -46.304688 44.484375 -43.066406 44.484375 -38.796875 C 44.484375 -34.054688 41.734375 -30.296875 36.234375 -27.515625 C 39.546875 -26.609375 42.109375 -25.113281 43.921875 -23.03125 C 45.734375 -20.957031 46.640625 -18.476562 46.640625 -15.59375 C 46.640625 -10.738281 45 -6.925781 41.71875 -4.15625 C 38.4375 -1.382812 33.890625 0 28.078125 0 L 3.515625 0 Z M 22.953125 -29.046875 C 26.523438 -29.046875 29.285156 -29.859375 31.234375 -31.484375 C 33.179688 -33.109375 34.15625 -35.382812 34.15625 -38.3125 C 34.15625 -43.59375 30.984375 -46.234375 24.640625 -46.234375 C 23.085938 -46.234375 21.460938 -46.128906 19.765625 -45.921875 L 19.765625 -29.046875 Z M 24.234375 -5.4375 C 28.234375 -5.4375 31.191406 -6.195312 33.109375 -7.71875 C 35.035156 -9.238281 36 -11.570312 36 -14.71875 C 36 -17.757812 34.984375 -20 32.953125 -21.4375 C 30.929688 -22.875 27.785156 -23.59375 23.515625 -23.59375 L 19.765625 -23.59375 L 19.765625 -5.6875 C 21.523438 -5.519531 23.015625 -5.4375 24.234375 -5.4375 Z M 24.234375 -5.4375" transform="translate(57.692 92.5)"/></g></g></g><g clip-path="url(#a)"><path d="M 45.222656 37.878906 C 45.402344 37.800781 45.457031 36.476562 45.507812 36.269531 C 45.53125 36.058594 45.636719 34.734375 45.820312 34.65625 C 48.648438 33.253906 51.53125 32.003906 54.492188 30.914062 C 65.894531 26.726562 78.675781 24.882812 90.519531 28.261719 C 100.257812 31.042969 109.273438 37.308594 114.363281 46.171875 C 117.0625 50.851562 118.464844 56.179688 118.492188 61.5625 C 118.519531 64.160156 118.15625 66.707031 117.714844 69.230469 C 117.246094 71.855469 116.699219 74.429688 115.816406 76.949219 C 112.050781 87.6875 103.738281 95.953125 93.660156 100.945312 C 82.46875 106.480469 69.792969 107.886719 57.453125 106.898438 C 50.882812 106.351562 44.339844 105.207031 37.949219 103.621094 C 33.015625 102.425781 28.15625 100.867188 23.535156 98.761719 C 14.574219 94.679688 6.234375 88.078125 3.300781 78.304688 C 1.558594 72.53125 2.132812 66.761719 3.273438 60.964844 C 4.390625 55.324219 6.808594 50.097656 10.183594 45.46875 C 17.09375 36.058594 27.378906 29.171875 37.949219 24.492188 C 49.117188 19.554688 61.351562 17.136719 73.558594 17.394531 C 73.402344 17.394531 73.167969 20.644531 72.960938 20.644531 C 70.078125 20.566406 67.167969 20.644531 64.285156 20.878906 C 52.753906 21.816406 41.429688 25.195312 31.273438 30.707031 C 21.535156 36.007812 12.210938 43.339844 6.730469 53.164062 C 5.351562 55.660156 4.234375 58.285156 3.457031 61.015625 C 3.300781 61.585938 3.171875 62.1875 3.015625 62.785156 C 2.675781 64.058594 3.171875 61.535156 3.066406 62.417969 C 2.988281 63.199219 2.859375 63.980469 2.808594 64.757812 C 2.703125 66.109375 2.703125 67.488281 2.808594 68.839844 C 3.144531 74.066406 4.960938 79.058594 8.078125 83.269531 C 13.792969 91.015625 22.9375 95.539062 31.871094 98.449219 C 37.144531 100.164062 42.597656 101.359375 48.050781 102.324219 C 54.546875 103.441406 61.144531 104.089844 67.738281 103.882812 C 78.988281 103.570312 90.285156 100.761719 99.765625 94.523438 C 104.285156 91.535156 108.3125 87.792969 111.453125 83.371094 C 113.011719 81.136719 114.363281 78.769531 115.425781 76.273438 C 115.972656 75 116.464844 73.703125 116.882812 72.375 C 117.089844 71.726562 117.269531 71.074219 117.425781 70.425781 C 117.503906 70.089844 117.582031 69.75 117.660156 69.414062 C 117.945312 68.214844 117.503906 70.710938 117.636719 69.492188 C 118.179688 64.160156 117.867188 58.960938 115.945312 53.894531 C 114.234375 49.371094 111.453125 45.289062 108.023438 41.910156 C 100.675781 34.605469 90.675781 30.523438 80.390625 29.820312 C 68.207031 29.015625 56.078125 32.523438 45.222656 37.878906 Z M 45.222656 37.878906"/></g></svg>