<svg xmlns="http://www.w3.org/2000/svg" width="120" viewBox="0 0 120 120" height="120" version="1.0"><defs><clipPath id="a"><path d="M 2.277344 2.277344 L 117.777344 2.277344 L 117.777344 117.777344 L 2.277344 117.777344 Z M 2.277344 2.277344"/></clipPath></defs><g clip-path="url(#a)"><path fill="#38B6FF" d="M 60.027344 117.777344 C 28.132812 117.777344 2.277344 91.921875 2.277344 60.027344 C 2.277344 28.132812 28.132812 2.277344 60.027344 2.277344 C 91.921875 2.277344 117.777344 28.132812 117.777344 60.027344 C 117.777344 91.921875 91.921875 117.777344 60.027344 117.777344 Z M 60.027344 117.777344"/></g><path fill="#FFF" d="M 105.175781 63.046875 C 105.175781 81.886719 84.878906 97.15625 59.839844 97.15625 C 34.800781 97.15625 14.507812 81.886719 14.507812 63.046875 C 14.507812 54.210938 18.96875 46.164062 26.289062 40.105469 C 23.660156 34.539062 25.855469 25.617188 27.539062 24.09375 C 29.265625 22.535156 39.035156 24.886719 43.5625 31.203125 C 48.617188 29.742188 54.101562 28.9375 59.839844 28.9375 C 65.664062 28.9375 71.226562 29.761719 76.34375 31.265625 C 80.851562 24.898438 90.679688 22.53125 92.410156 24.09375 C 94.113281 25.632812 96.335938 34.714844 93.585938 40.273438 C 100.792969 46.308594 105.175781 54.292969 105.175781 63.046875 Z M 105.175781 63.046875"/><path fill="#FDF5D8" d="M 60.28125 28.941406 C 65.945312 28.984375 71.359375 29.800781 76.34375 31.265625 C 80.851562 24.898438 90.679688 22.53125 92.410156 24.09375 C 94.113281 25.632812 96.335938 34.714844 93.585938 40.273438 C 100.789062 46.3125 105.175781 54.292969 105.175781 63.046875 C 105.175781 81.777344 85.117188 96.976562 60.28125 97.15625 Z M 60.28125 28.941406"/><path fill="#FCE64D" d="M 45.570312 30.664062 C 48.136719 30.023438 50.808594 29.546875 53.554688 29.261719 C 53.207031 32.273438 52.050781 39.910156 49.375 39.910156 C 47.050781 39.910156 45.996094 34.152344 45.570312 30.664062 Z M 55.652344 29.082031 C 56.097656 33.148438 57.351562 41.089844 60.351562 41.089844 C 63.328125 41.089844 64.746094 33.289062 65.285156 29.191406 C 63.5 29.027344 61.683594 28.9375 59.839844 28.9375 C 58.429688 28.9375 57.03125 28.984375 55.652344 29.082031 Z M 67.445312 29.421875 C 67.761719 32.578125 68.773438 39.839844 71.382812 39.839844 C 73.617188 39.839844 74.789062 34.5 75.320312 30.988281 C 72.792969 30.292969 70.160156 29.765625 67.445312 29.421875 Z M 67.445312 29.421875"/><path d="M 95.445312 39.839844 C 97.699219 33.757812 95.617188 24.917969 93.445312 22.949219 C 92.628906 22.210938 91.246094 21.945312 89.335938 22.15625 C 85.871094 22.535156 79.601562 24.804688 75.757812 29.5 C 70.660156 28.101562 65.3125 27.394531 59.84375 27.394531 C 54.457031 27.394531 49.179688 28.082031 44.148438 29.441406 C 40.285156 24.765625 34.03125 22.523438 30.585938 22.152344 C 28.691406 21.953125 27.320312 22.21875 26.507812 22.953125 C 25.066406 24.257812 24.136719 27.765625 23.773438 30.371094 C 23.484375 32.457031 23.230469 36.253906 24.441406 39.65625 C 17.03125 46.140625 12.964844 54.40625 12.964844 63.046875 C 12.964844 82.707031 33.996094 98.699219 59.839844 98.699219 C 85.6875 98.699219 106.714844 82.707031 106.714844 63.046875 C 106.714844 54.492188 102.722656 46.292969 95.445312 39.839844 Z M 59.839844 95.617188 C 35.691406 95.617188 16.046875 81.007812 16.046875 63.046875 C 16.046875 55.007812 20.03125 47.28125 27.269531 41.289062 L 28.191406 40.527344 L 27.683594 39.449219 C 25.28125 34.359375 27.484375 26.371094 28.539062 25.269531 C 29.945312 24.628906 38.226562 26.398438 42.308594 32.101562 L 42.945312 32.988281 L 43.988281 32.683594 C 49.046875 31.21875 54.378906 30.476562 59.839844 30.476562 C 65.382812 30.476562 70.792969 31.242188 75.90625 32.746094 L 76.964844 33.054688 L 77.601562 32.15625 C 81.671875 26.40625 89.992188 24.621094 91.414062 25.269531 C 92.496094 26.394531 94.726562 34.496094 92.207031 39.585938 L 91.667969 40.671875 L 92.597656 41.449219 C 99.714844 47.417969 103.636719 55.085938 103.636719 63.046875 C 103.636719 81.007812 83.988281 95.617188 59.839844 95.617188 Z M 57.03125 60.535156 C 56.519531 59.960938 56.78125 59.039062 57.519531 58.832031 C 58.820312 58.464844 60.789062 58.15625 62.765625 58.792969 C 63.464844 59.019531 63.734375 59.863281 63.285156 60.441406 L 61.105469 63.246094 C 60.703125 63.765625 59.929688 63.789062 59.492188 63.300781 Z M 45.757812 54.902344 C 45.757812 56.117188 44.769531 57.105469 43.554688 57.105469 C 42.339844 57.105469 41.355469 56.117188 41.355469 54.902344 C 41.355469 53.6875 42.339844 52.703125 43.554688 52.703125 C 44.769531 52.703125 45.757812 53.6875 45.757812 54.902344 Z M 77.003906 54.902344 C 77.003906 56.117188 76.019531 57.105469 74.804688 57.105469 C 73.589844 57.105469 72.605469 56.117188 72.605469 54.902344 C 72.605469 53.6875 73.589844 52.703125 74.804688 52.703125 C 76.019531 52.703125 77.003906 53.6875 77.003906 54.902344 Z M 75.265625 69.910156 C 75.847656 70.53125 75.820312 71.503906 75.203125 72.089844 C 72.785156 74.375 70.28125 75.527344 67.75 75.527344 C 67.417969 75.527344 67.085938 75.507812 66.753906 75.46875 C 64.027344 75.140625 61.9375 73.53125 60.65625 72.226562 C 59.277344 74.179688 57.550781 75.371094 55.503906 75.78125 C 54.976562 75.886719 54.453125 75.933594 53.9375 75.933594 C 49.832031 75.933594 46.25 72.949219 46.082031 72.808594 C 45.433594 72.257812 45.351562 71.285156 45.902344 70.636719 C 46.453125 69.988281 47.421875 69.90625 48.070312 70.453125 C 48.117188 70.492188 51.664062 73.417969 54.910156 72.757812 C 56.425781 72.449219 57.714844 71.347656 58.742188 69.484375 L 58.742188 65.90625 C 58.742188 65.058594 59.433594 64.367188 60.28125 64.367188 C 61.132812 64.367188 61.824219 65.058594 61.824219 65.90625 L 61.824219 68.851562 C 62.101562 69.246094 64.167969 72.0625 67.140625 72.410156 C 69.050781 72.628906 71.054688 71.769531 73.089844 69.847656 C 73.707031 69.261719 74.679688 69.292969 75.265625 69.910156 Z M 32.261719 58.679688 C 32.054688 59.339844 31.449219 59.761719 30.792969 59.761719 C 30.640625 59.761719 30.488281 59.738281 30.332031 59.691406 L 25.460938 58.164062 C 24.648438 57.910156 24.195312 57.050781 24.445312 56.238281 C 24.703125 55.425781 25.5625 54.972656 26.375 55.226562 L 31.25 56.75 C 32.0625 57.003906 32.515625 57.867188 32.261719 58.679688 Z M 32.261719 68.730469 C 32.515625 69.542969 32.0625 70.410156 31.25 70.660156 L 26.375 72.183594 C 26.222656 72.234375 26.070312 72.257812 25.917969 72.257812 C 25.261719 72.257812 24.652344 71.835938 24.445312 71.175781 C 24.195312 70.363281 24.648438 69.5 25.460938 69.246094 L 30.332031 67.722656 C 31.144531 67.46875 32.007812 67.921875 32.261719 68.730469 Z M 24.847656 65.09375 C 24 65.09375 23.308594 64.402344 23.308594 63.550781 C 23.308594 62.703125 24 62.011719 24.847656 62.011719 L 30.027344 62.011719 C 30.878906 62.011719 31.570312 62.703125 31.570312 63.550781 C 31.570312 64.402344 30.878906 65.09375 30.027344 65.09375 Z M 86.320312 58.679688 C 86.066406 57.867188 86.519531 57.003906 87.332031 56.75 L 92.207031 55.226562 C 93.019531 54.976562 93.882812 55.425781 94.136719 56.238281 C 94.386719 57.050781 93.933594 57.914062 93.125 58.167969 L 88.25 59.691406 C 88.097656 59.738281 87.941406 59.765625 87.789062 59.765625 C 87.132812 59.761719 86.523438 59.339844 86.320312 58.679688 Z M 94.136719 71.171875 C 93.929688 71.832031 93.320312 72.253906 92.664062 72.253906 C 92.511719 72.253906 92.359375 72.230469 92.207031 72.183594 L 87.332031 70.660156 C 86.519531 70.40625 86.066406 69.542969 86.320312 68.730469 C 86.570312 67.917969 87.4375 67.464844 88.25 67.71875 L 93.125 69.242188 C 93.9375 69.496094 94.390625 70.359375 94.136719 71.171875 Z M 95.269531 63.554688 C 95.269531 64.40625 94.582031 65.097656 93.730469 65.097656 L 88.550781 65.097656 C 87.699219 65.097656 87.011719 64.40625 87.011719 63.554688 C 87.011719 62.703125 87.699219 62.015625 88.550781 62.015625 L 93.730469 62.015625 C 94.582031 62.015625 95.269531 62.703125 95.269531 63.554688 Z M 95.269531 63.554688"/></svg>